<svg width="16" height="16" viewBox="0 0 16 16" fill="none" xmlns="http://www.w3.org/2000/svg">
<path d="M6 10.9997C5.53333 10.9997 5.13889 10.8386 4.81667 10.5163C4.49444 10.1941 4.33333 9.79967 4.33333 9.33301C4.33333 8.86634 4.49444 8.4719 4.81667 8.14967C5.13889 7.82745 5.53333 7.66634 6 7.66634C6.46667 7.66634 6.86111 7.82745 7.18333 8.14967C7.50556 8.4719 7.66667 8.86634 7.66667 9.33301C7.66667 9.79967 7.50556 10.1941 7.18333 10.5163C6.86111 10.8386 6.46667 10.9997 6 10.9997ZM3.33333 14.6663C2.96667 14.6663 2.65278 14.5358 2.39167 14.2747C2.13056 14.0136 2 13.6997 2 13.333V3.99967C2 3.63301 2.13056 3.31912 2.39167 3.05801C2.65278 2.7969 2.96667 2.66634 3.33333 2.66634H4V1.33301H5.33333V2.66634H10.6667V1.33301H12V2.66634H12.6667C13.0333 2.66634 13.3472 2.7969 13.6083 3.05801C13.8694 3.31912 14 3.63301 14 3.99967V13.333C14 13.6997 13.8694 14.0136 13.6083 14.2747C13.3472 14.5358 13.0333 14.6663 12.6667 14.6663H3.33333ZM3.33333 13.333H12.6667V6.66634H3.33333V13.333Z" fill="#808284"/>
</svg>
