<svg width="139" height="125" viewBox="0 0 139 125" fill="none" xmlns="http://www.w3.org/2000/svg">
<g filter="url(#filter0_d_123_72)">
<path d="M69.3201 0.160156C33.3201 0.160156 4.04004 24.4802 4.04004 54.3702C4.04004 71.7602 14.19 88.2102 31.19 98.3801C31.25 98.4101 31.28 98.4602 31.3 98.5302C31.31 98.5802 31.31 98.6602 31.26 98.7302L21.08 112.95C20.51 113.74 20.51 114.77 21.06 115.57C21.5 116.2 22.18 116.55 22.92 116.55C23.12 116.55 23.33 116.52 23.54 116.47L54.93 107.86C55.8 107.62 56.7201 107.58 57.66 107.72C61.4901 108.3 65.42 108.59 69.34 108.59C105.34 108.59 134.62 84.2702 134.62 54.3802C134.62 24.4902 105.32 0.160156 69.3201 0.160156Z" fill="black"/>
</g>
<defs>
<filter id="filter0_d_123_72" x="0.0400391" y="0.160156" width="138.58" height="124.39" filterUnits="userSpaceOnUse" color-interpolation-filters="sRGB">
<feFlood flood-opacity="0" result="BackgroundImageFix"/>
<feColorMatrix in="SourceAlpha" type="matrix" values="0 0 0 0 0 0 0 0 0 0 0 0 0 0 0 0 0 0 127 0" result="hardAlpha"/>
<feOffset dy="4"/>
<feGaussianBlur stdDeviation="2"/>
<feComposite in2="hardAlpha" operator="out"/>
<feColorMatrix type="matrix" values="0 0 0 0 0 0 0 0 0 0 0 0 0 0 0 0 0 0 0.25 0"/>
<feBlend mode="normal" in2="BackgroundImageFix" result="effect1_dropShadow_123_72"/>
<feBlend mode="normal" in="SourceGraphic" in2="effect1_dropShadow_123_72" result="shape"/>
</filter>
</defs>
</svg>
