<svg width="131" height="117" viewBox="0 0 131 117" fill="none" xmlns="http://www.w3.org/2000/svg">
<path d="M65.3201 0.160156C29.3201 0.160156 0.0400391 24.4802 0.0400391 54.3702C0.0400391 71.7602 10.19 88.2102 27.19 98.3801C27.25 98.4101 27.28 98.4602 27.3 98.5302C27.31 98.5802 27.31 98.6602 27.26 98.7302L17.08 112.95C16.51 113.74 16.51 114.77 17.06 115.57C17.5 116.2 18.18 116.55 18.92 116.55C19.12 116.55 19.33 116.52 19.54 116.47L50.93 107.86C51.8 107.62 52.7201 107.58 53.66 107.72C57.4901 108.3 61.42 108.59 65.34 108.59C101.34 108.59 130.62 84.2702 130.62 54.3802C130.62 24.4902 101.32 0.160156 65.3201 0.160156Z" fill="black"/>
</svg>
