<svg width="100%" height="100%" viewBox="0 0 10 9" fill="none" xmlns="http://www.w3.org/2000/svg">
<path d="M4.99989 9C4.88347 9 4.77004 8.95244 4.6889 8.86968C3.81591 7.97945 0.934262 5.02931 0.511471 4.43896C-0.0646421 3.63498 -0.166405 2.36695 0.26914 1.42379C0.646341 0.607725 1.37659 0.108467 2.32502 0.0187184C3.86015 -0.126921 4.63436 0.610144 4.99989 1.18813C5.3657 0.609875 6.13909 -0.12719 7.67476 0.0187184C8.62319 0.108735 9.35344 0.607725 9.73064 1.42379C10.1665 2.36695 10.0647 3.63498 9.48858 4.43896C9.06579 5.02931 6.18414 7.97945 5.31115 8.86968C5.23001 8.95244 5.11658 9 4.99989 9ZM2.70331 0.611756C2.60182 0.611756 2.49544 0.616861 2.38391 0.627341C1.46099 0.71494 1.03005 1.24725 0.8306 1.67826C0.486234 2.42338 0.565474 3.45818 1.01486 4.08507C1.32286 4.515 3.32338 6.59775 4.99989 8.30915C6.67613 6.59775 8.67692 4.515 8.98465 4.08507C9.43404 3.45791 9.51328 2.42311 9.16891 1.67799C8.96973 1.24698 8.53853 0.714671 7.6156 0.627072C5.91549 0.465579 5.42268 1.60221 5.31251 1.95449C5.27045 2.09045 5.1448 2.18235 5.00043 2.18289H4.99962C4.85552 2.18289 4.72988 2.09153 4.68673 1.95529C4.58361 1.62559 4.14725 0.611487 2.70276 0.611487L2.70331 0.611756ZM4.72364 1.77284C4.72364 1.77284 4.72337 1.77392 4.7231 1.77472L4.72364 1.77284Z" fill="#BCBEC0"/>
</svg>
