<svg width="100%" height="100%" viewBox="0 0 8 7" fill="none" xmlns="http://www.w3.org/2000/svg">
<path d="M3.99991 7C3.90678 7 3.81603 6.96301 3.75112 6.89864C3.05273 6.20624 0.74741 3.91168 0.409177 3.45252C-0.0517137 2.82721 -0.133124 1.84096 0.215312 1.10739C0.517073 0.472675 1.10127 0.084363 1.86002 0.0145588C3.08812 -0.0987164 3.70749 0.474556 3.99991 0.924104C4.29256 0.474347 4.91127 -0.0989254 6.13981 0.0145588C6.89855 0.084572 7.48275 0.472675 7.78451 1.10739C8.13317 1.84096 8.05176 2.82721 7.59087 3.45252C7.25263 3.91168 4.94731 6.20624 4.24892 6.89864C4.18401 6.96301 4.09326 7 3.99991 7ZM2.16265 0.47581C2.08145 0.47581 1.99635 0.479781 1.90713 0.487932C1.16879 0.556064 0.824044 0.970083 0.66448 1.30531C0.388987 1.88485 0.452379 2.68969 0.811887 3.17728C1.05829 3.51167 2.65871 5.13159 3.99991 6.46267C5.3409 5.13159 6.94154 3.51167 7.18772 3.17728C7.54723 2.68948 7.61062 1.88464 7.33513 1.3051C7.17578 0.969874 6.83082 0.555855 6.09248 0.487723C4.73239 0.362117 4.33815 1.24616 4.25001 1.52016C4.21636 1.62591 4.11584 1.69738 4.00035 1.6978H3.9997C3.88442 1.6978 3.7839 1.62674 3.74939 1.52078C3.66689 1.26435 3.3178 0.475601 2.16221 0.475601L2.16265 0.47581ZM3.77891 1.37888C3.77891 1.37888 3.77869 1.37971 3.77848 1.38034L3.77891 1.37888Z" fill="black"/>
</svg>
