<svg width="10" height="10" viewBox="0 0 10 10" fill="none" xmlns="http://www.w3.org/2000/svg">
<path d="M5.00004 8.75033L4.39587 8.20866C3.69449 7.57672 3.11462 7.03158 2.65629 6.57324C2.19796 6.11491 1.83337 5.70519 1.56254 5.34408C1.29171 4.97602 1.10074 4.63921 0.989624 4.33366C0.885457 4.0281 0.833374 3.7156 0.833374 3.39616C0.833374 2.74338 1.05212 2.19824 1.48962 1.76074C1.92712 1.32324 2.47226 1.10449 3.12504 1.10449C3.48615 1.10449 3.8299 1.18088 4.15629 1.33366C4.48268 1.48644 4.76393 1.70171 5.00004 1.97949C5.23615 1.70171 5.5174 1.48644 5.84379 1.33366C6.17018 1.18088 6.51393 1.10449 6.87504 1.10449C7.52782 1.10449 8.07296 1.32324 8.51046 1.76074C8.94796 2.19824 9.16671 2.74338 9.16671 3.39616C9.16671 3.7156 9.11115 4.0281 9.00004 4.33366C8.89587 4.63921 8.70837 4.97602 8.43754 5.34408C8.16671 5.70519 7.80212 6.11491 7.34379 6.57324C6.88546 7.03158 6.3056 7.57672 5.60421 8.20866L5.00004 8.75033ZM5.00004 7.62533C5.66671 7.0281 6.21532 6.51769 6.64587 6.09408C7.07643 5.66352 7.41671 5.29199 7.66671 4.97949C7.91671 4.66005 8.09032 4.3788 8.18754 4.13574C8.28476 3.88574 8.33337 3.63921 8.33337 3.39616C8.33337 2.97949 8.19449 2.63227 7.91671 2.35449C7.63893 2.07671 7.29171 1.93783 6.87504 1.93783C6.54865 1.93783 6.24657 2.03158 5.96879 2.21908C5.69101 2.39963 5.50004 2.63227 5.39587 2.91699H4.60421C4.50004 2.63227 4.30907 2.39963 4.03129 2.21908C3.75351 2.03158 3.45143 1.93783 3.12504 1.93783C2.70837 1.93783 2.36115 2.07671 2.08337 2.35449C1.8056 2.63227 1.66671 2.97949 1.66671 3.39616C1.66671 3.63921 1.71532 3.88574 1.81254 4.13574C1.90976 4.3788 2.08337 4.66005 2.33337 4.97949C2.58337 5.29199 2.92365 5.66352 3.35421 6.09408C3.78476 6.51769 4.33337 7.0281 5.00004 7.62533Z" fill="white"/>
</svg>
