<svg width="28" height="24" viewBox="0 0 28 24" fill="none" xmlns="http://www.w3.org/2000/svg">
<path d="M27.2666 3.62526C26.558 2.15674 25.0314 0.343513 21.7835 0.0487804C16.5191 -0.4297 14.5823 2.73665 14.0009 4.0883C13.4194 2.73739 11.4818 -0.42823 6.2174 0.0487804C2.97035 0.344248 1.44374 2.15674 0.734326 3.62599C-0.450366 6.08087 -0.178228 9.37511 1.38172 11.4595C2.62456 13.1199 11.7532 22.0537 13.5705 23.828C13.6845 23.939 13.8373 24 14.0001 24C14.1629 24 14.3156 23.939 14.4296 23.828C16.247 22.0537 25.3756 13.1199 26.6184 11.4595C28.1784 9.37511 28.4505 6.08087 27.2651 3.62599L27.2666 3.62526Z" fill="black"/>
</svg>
