<svg width="9" height="8" viewBox="0 0 9 8" fill="none" xmlns="http://www.w3.org/2000/svg">
<path d="M8.76427 1.20842C8.53649 0.718913 8.04579 0.114504 7.00185 0.0162601C5.30971 -0.143233 4.68718 0.912217 4.50027 1.36277C4.31337 0.912462 3.69059 -0.142743 1.99845 0.0162601C0.954756 0.114749 0.464061 0.718914 0.236033 1.20866C-0.14476 2.02696 -0.0572876 3.12504 0.444124 3.81985C0.843608 4.3733 3.77781 7.35125 4.36196 7.94267C4.3986 7.97967 4.44769 8 4.50002 8C4.55236 8 4.60145 7.97967 4.63809 7.94267C5.22224 7.35125 8.15644 4.3733 8.55593 3.81985C9.05734 3.12504 9.14481 2.02696 8.76377 1.20866L8.76427 1.20842Z" fill="white"/>
</svg>
