<svg width="29" height="29" viewBox="0 0 29 29" fill="none" xmlns="http://www.w3.org/2000/svg">
<path d="M28.2596 16.2809C27.7566 16.793 27.0596 17.0885 26.3468 17.0885H21.0189C20.949 17.0885 20.9219 17.1426 20.9152 17.1584C20.9084 17.1742 20.8903 17.2329 20.94 17.2802L24.7069 21.0476C25.21 21.5507 25.4942 22.2522 25.4874 22.9696C25.4806 23.6689 25.2077 24.3141 24.716 24.7879C23.7077 25.7602 22.0813 25.7444 21.0911 24.754L17.2767 20.9416C17.2271 20.8919 17.1707 20.91 17.1549 20.9167C17.1391 20.9235 17.085 20.9506 17.085 21.0205V26.3467C17.085 27.0596 16.7918 27.7566 16.2775 28.2597C15.779 28.7492 15.1248 29.0109 14.4459 28.9997C13.0451 28.9726 11.9082 27.813 11.9082 26.4121V21.0183C11.9082 20.9483 11.8541 20.9213 11.8383 20.9145C11.8225 20.9077 11.7639 20.8897 11.7165 20.9393L7.9044 24.7518C7.41491 25.2413 6.76528 25.5098 6.07504 25.5098C5.3848 25.5098 4.73291 25.2413 4.24568 24.7518C3.7562 24.2623 3.48778 23.6126 3.48778 22.9222C3.48778 22.2319 3.7562 21.58 4.24568 21.0927L8.05778 17.2802C8.10741 17.2306 8.08936 17.1742 8.08259 17.1584C8.07583 17.1426 8.04876 17.0885 7.97883 17.0885H2.65317C1.94038 17.0885 1.24338 16.7952 0.740359 16.2809C0.250876 15.7823 -0.0130382 15.1326 0.000495904 14.4513C0.0275641 13.0504 1.18698 11.9134 2.58776 11.9134H7.98109C8.05101 11.9134 8.07808 11.8593 8.08485 11.8435C8.09162 11.8277 8.10966 11.7713 8.06004 11.7217L4.29305 7.95432C3.26898 6.93014 3.23965 5.27431 4.22989 4.26592C4.71938 3.76511 5.37578 3.48989 6.0773 3.48989C6.77881 3.48989 7.41942 3.75834 7.90665 4.24787L11.7187 8.06035C11.7684 8.10998 11.8248 8.09193 11.8406 8.08516C11.8563 8.0784 11.9105 8.05132 11.9105 7.98139V2.65294C11.9105 1.94008 12.2037 1.243 12.718 0.739937C13.2052 0.261686 13.8368 0 14.5023 0C14.518 0 14.5338 0 14.5496 0C15.9504 0.027071 17.0873 1.18661 17.0873 2.58752V7.98139C17.0873 8.05132 17.1414 8.0784 17.1572 8.08516C17.173 8.09193 17.2316 8.10998 17.279 8.06035L21.0934 4.24787C21.5828 3.75834 22.2325 3.48989 22.9227 3.48989C23.6129 3.48989 24.2648 3.75834 24.7521 4.24787C25.2415 4.7374 25.51 5.3871 25.51 6.07741C25.51 6.76771 25.2415 7.41967 24.7521 7.90695L20.94 11.7217C20.8903 11.7713 20.9084 11.8277 20.9152 11.8435C20.9219 11.8593 20.949 11.9134 21.0189 11.9134H26.4122C27.813 11.9134 28.9724 13.0527 28.9995 14.4513C29.013 15.1326 28.7491 15.7823 28.2596 16.2809Z" fill="black"/>
</svg>
