<svg width="133" height="133" viewBox="0 0 133 133" fill="none" xmlns="http://www.w3.org/2000/svg">
<path d="M66.2901 132.56C62.8201 132.56 59.5301 131.2 56.9901 128.7C54.3401 126.1 52.8101 122.49 52.8101 118.8V98.8095L38.4701 113.15C35.9301 115.69 32.5401 117.1 28.9401 117.1C25.3401 117.1 21.8801 115.67 19.3201 113.06C14.1701 107.81 14.3001 99.2095 19.6101 93.8995L33.7501 79.7595H13.4701C6.18011 79.7495 0.140114 73.8195 0.000114278 66.5295C-0.0698857 62.9695 1.30011 59.5795 3.86011 56.9795C6.46011 54.3295 10.0701 52.8095 13.7601 52.8095H33.7601L19.4201 38.4695C16.8801 35.9295 15.4701 32.5395 15.4701 28.9395C15.4701 25.3395 16.8701 21.9595 19.4201 19.4095C21.9601 16.8695 25.3501 15.4595 28.9501 15.4595C32.5501 15.4595 35.9301 16.8595 38.4801 19.4095L52.8201 33.7495V13.4695C52.8101 6.17952 58.7401 0.13952 66.0301 -0.000480051C69.5501 -0.03048 72.9801 1.29952 75.5801 3.84952C78.2301 6.44952 79.7601 10.0595 79.7601 13.7495V33.7395L94.1001 19.3995C99.2601 14.2395 107.72 14.1595 112.97 19.2295C115.53 21.6995 116.96 25.0695 117 28.7095C117.03 32.4295 115.56 36.0495 112.95 38.6595L98.8101 52.7995H118.8C122.49 52.7995 126.1 54.3195 128.7 56.9795C131.25 59.5795 132.62 62.9695 132.55 66.5295C132.41 73.8195 126.37 79.7495 119.08 79.7495H98.8001L113.14 94.0895C115.68 96.6295 117.09 100.02 117.09 103.62C117.09 107.22 115.69 110.6 113.14 113.15C110.6 115.69 107.22 117.1 103.61 117.1C100 117.1 96.6301 115.7 94.0801 113.15L79.7401 98.8095V119.09C79.7401 126.38 73.8101 132.42 66.5201 132.56C66.4401 132.56 66.3501 132.56 66.2701 132.56H66.2901ZM54.3101 91.6795C54.7601 91.6795 55.2201 91.7695 55.6501 91.9495C56.9601 92.4895 57.8101 93.7595 57.8101 95.1795V118.8C57.8101 121.16 58.7901 123.47 60.4901 125.14C62.1201 126.74 64.2401 127.6 66.4501 127.56C71.0301 127.48 74.7601 123.67 74.7601 119.09V95.1795C74.7601 93.7595 75.6101 92.4895 76.9201 91.9495C78.2301 91.4095 79.7301 91.7095 80.7301 92.7095L97.6301 109.61C99.2301 111.21 101.36 112.09 103.62 112.09C105.88 112.09 108.01 111.21 109.61 109.61C111.21 108.01 112.09 105.88 112.09 103.62C112.09 101.36 111.21 99.2295 109.61 97.6295L92.7101 80.7195C91.7101 79.7195 91.4101 78.2195 91.9501 76.9095C92.4901 75.5995 93.7601 74.7495 95.1801 74.7495H119.09C123.67 74.7495 127.48 71.0195 127.56 66.4395C127.6 64.2295 126.74 62.1195 125.14 60.4795C123.47 58.7795 121.16 57.7995 118.81 57.7995H95.1901C93.7701 57.7995 92.5001 56.9495 91.9601 55.6395C91.4201 54.3295 91.7101 52.8295 92.7201 51.8295L109.42 35.1295C111.09 33.4595 112.03 31.1395 112.01 28.7595C111.99 26.4695 111.1 24.3695 109.51 22.8295C106.21 19.6495 100.89 19.6995 97.6401 22.9395L80.7301 39.8395C79.7301 40.8395 78.2301 41.1395 76.9201 40.5995C75.6101 40.0595 74.7601 38.7895 74.7601 37.3695V13.7595C74.7601 11.3995 73.7801 9.08952 72.0801 7.42952C70.4501 5.82952 68.3001 4.95952 66.1201 5.00952C61.5401 5.08952 57.8101 8.88952 57.8101 13.4795V37.3895C57.8101 38.8095 56.9601 40.0795 55.6501 40.6195C54.3401 41.1595 52.8401 40.8695 51.8401 39.8595L34.9401 22.9595C33.3401 21.3595 31.2101 20.4795 28.9501 20.4795C26.6901 20.4795 24.5601 21.3595 22.9601 22.9595C21.3601 24.5595 20.4801 26.6895 20.4801 28.9495C20.4801 31.2095 21.3601 33.3395 22.9601 34.9395L39.8601 51.8395C40.8601 52.8395 41.1601 54.3395 40.6201 55.6495C40.0801 56.9595 38.8101 57.8095 37.3901 57.8095H13.7601C11.4001 57.8095 9.09011 58.7895 7.43011 60.4895C5.83011 62.1195 4.97011 64.2395 5.01011 66.4495C5.09011 71.0295 8.90011 74.7595 13.4801 74.7595H37.3901C38.8101 74.7595 40.0801 75.6095 40.6201 76.9195C41.1601 78.2295 40.8701 79.7295 39.8601 80.7295L23.1601 97.4295C19.7801 100.81 19.6601 106.25 22.9001 109.56C24.5101 111.2 26.6501 112.1 28.9501 112.1C31.2501 112.1 33.3401 111.22 34.9401 109.62L51.8401 92.7195C52.5101 92.0495 53.4001 91.6895 54.3101 91.6895V91.6795Z" fill="black"/>
</svg>
