<svg width="115" height="86" viewBox="0 0 115 86" fill="none" xmlns="http://www.w3.org/2000/svg">
<path d="M3.90894 78.3438V84H3.198V79.0781H3.16675L1.79175 79.9922V79.2812L3.198 78.3438H3.90894Z" fill="#B69DFF"/>
<path d="M20.0037 84L19.9959 83.4844L21.9256 81.4531C22.5936 80.7422 22.9139 80.3594 22.9178 79.8359C22.9139 79.2539 22.4295 78.8789 21.7928 78.875C21.117 78.8789 20.6951 79.3047 20.6912 79.9375H20.0272C20.0194 78.9375 20.7928 78.2656 21.8162 78.2656C22.8436 78.2656 23.5701 78.957 23.574 79.8359C23.5701 80.4688 23.2772 80.9609 22.2772 81.9922L20.9803 83.3281V83.375H23.6756V84H20.0037Z" fill="#7F52FF"/>
<path d="M39.9937 84.0781C38.8687 84.0781 38.0601 83.4766 38.025 82.5781H38.7359C38.775 83.1172 39.3101 83.4531 39.9859 83.4531C40.732 83.4531 41.2711 83.0508 41.275 82.4609C41.2711 81.8438 40.7789 81.4102 39.9 81.4062H39.439V80.7891H39.9C40.5875 80.7891 41.0679 80.4023 41.064 79.8203C41.0679 79.2539 40.6539 78.8789 40.0093 78.875C39.4039 78.8789 38.8531 79.2109 38.8218 79.7656H38.1422C38.1773 78.8672 39.0132 78.2656 40.0172 78.2656C41.0953 78.2656 41.7515 78.9727 41.7437 79.7812C41.7515 80.4258 41.3765 80.8945 40.7828 81.0625V81.1016C41.5211 81.2148 41.9664 81.7422 41.9625 82.4609C41.9664 83.3906 41.1226 84.0781 39.9937 84.0781Z" fill="#BCBEC0"/>
<path d="M56.0305 82.8438V82.2656L58.5773 78.3438H59.4445V82.2266H60.2336V82.8438H59.4445V84H58.7726V82.8438H56.0305ZM56.7883 82.2266H58.7726V79.2344H58.7023L56.7883 82.1797V82.2266Z" fill="#BCBEC0"/>
<path d="M76.2822 84.0781C75.2626 84.0781 74.4892 83.4492 74.4462 82.5781H75.1259C75.1767 83.082 75.6689 83.457 76.2822 83.4609C77.0165 83.457 77.5478 82.9219 77.5478 82.2109C77.5478 81.4766 76.997 80.9336 76.2353 80.9297C75.7587 80.9219 75.3876 81.0703 75.1806 81.4375H74.5009L74.8994 78.3438H77.9619V78.9688H75.4853L75.2744 80.625H75.329C75.583 80.4297 75.9619 80.2969 76.3603 80.2969C77.4384 80.2969 78.2314 81.0938 78.2353 82.1953C78.2314 83.2891 77.4111 84.0781 76.2822 84.0781Z" fill="#BCBEC0"/>
<path d="M94.4986 84.0781C93.5181 84.0664 92.4361 83.4844 92.4361 81.3906C92.4361 79.3867 93.2564 78.2656 94.5845 78.2656C95.5806 78.2656 96.2759 78.8789 96.4205 79.7656H95.7252C95.5963 79.2656 95.2134 78.8906 94.5845 78.8906C93.6549 78.8906 93.0963 79.6836 93.1002 81.0469H93.1705C93.4947 80.5742 94.0142 80.2969 94.6236 80.2969C95.6275 80.2969 96.4674 81.0781 96.4674 82.1719C96.4674 83.2383 95.69 84.0898 94.4986 84.0781ZM93.1939 82.1875C93.1978 82.8516 93.7408 83.457 94.4986 83.4609C95.2291 83.457 95.7838 82.8828 95.7877 82.1797C95.7838 81.4844 95.2525 80.918 94.5142 80.9141C93.772 80.918 93.2017 81.5195 93.1939 82.1875Z" fill="#BCBEC0"/>
<path d="M111.114 84L113.707 79.0078V78.9688H110.715V78.3438H114.434V79L111.848 84H111.114Z" fill="#BCBEC0"/>
<rect y="56" width="6.05263" height="15" rx="3" fill="#B69DFF"/>
<rect x="18.1578" y="45" width="6.05263" height="26" rx="3" fill="#7F52FF"/>
<rect x="36.3158" y="35" width="6.05263" height="36" rx="3" fill="#D9D9D9"/>
<rect x="54.4736" y="28" width="6.05263" height="43" rx="3" fill="#D9D9D9"/>
<rect x="72.6316" y="20" width="6.05263" height="51" rx="3" fill="#D9D9D9"/>
<rect x="90.7894" y="10" width="6.05263" height="61" rx="3" fill="#D9D9D9"/>
<rect x="108.947" width="6.05263" height="71" rx="3" fill="#D9D9D9"/>
</svg>
