<svg width="115" height="86" viewBox="0 0 115 86" fill="none" xmlns="http://www.w3.org/2000/svg">
<path d="M3.80368 78.3438V84H3.09274V79.0781H3.06149L1.68649 79.9922V79.2812L3.09274 78.3438H3.80368Z" fill="#D0BFFF"/>
<path d="M19.7055 84L19.6977 83.4844L21.6274 81.4531C22.2954 80.7422 22.6157 80.3594 22.6196 79.8359C22.6157 79.2539 22.1313 78.8789 21.4946 78.875C20.8188 78.8789 20.3969 79.3047 20.393 79.9375H19.729C19.7211 78.9375 20.4946 78.2656 21.518 78.2656C22.5454 78.2656 23.2719 78.957 23.2758 79.8359C23.2719 80.4688 22.979 80.9609 21.979 81.9922L20.6821 83.3281V83.375H23.3774V84H19.7055Z" fill="#BCA4FF"/>
<path d="M39.5376 84.0781C38.4126 84.0781 37.604 83.4766 37.5688 82.5781H38.2797C38.3188 83.1172 38.854 83.4531 39.5297 83.4531C40.2758 83.4531 40.8149 83.0508 40.8188 82.4609C40.8149 81.8438 40.3227 81.4102 39.4438 81.4062H38.9829V80.7891H39.4438C40.1313 80.7891 40.6118 80.4023 40.6079 79.8203C40.6118 79.2539 40.1977 78.8789 39.5532 78.875C38.9477 78.8789 38.3969 79.2109 38.3657 79.7656H37.686C37.7211 78.8672 38.5571 78.2656 39.561 78.2656C40.6391 78.2656 41.2954 78.9727 41.2876 79.7812C41.2954 80.4258 40.9204 80.8945 40.3266 81.0625V81.1016C41.0649 81.2148 41.5102 81.7422 41.5063 82.4609C41.5102 83.3906 40.6665 84.0781 39.5376 84.0781Z" fill="#A888FF"/>
<path d="M55.8989 82.8438V82.2656L58.4458 78.3438H59.3129V82.2266H60.102V82.8438H59.3129V84H58.6411V82.8438H55.8989ZM56.6567 82.2266H58.6411V79.2344H58.5708L56.6567 82.1797V82.2266Z" fill="#936DFF"/>
<path d="M76.1506 84.0781C75.1311 84.0781 74.3576 83.4492 74.3147 82.5781H74.9943C75.0451 83.082 75.5373 83.457 76.1506 83.4609C76.885 83.457 77.4162 82.9219 77.4162 82.2109C77.4162 81.4766 76.8654 80.9336 76.1037 80.9297C75.6272 80.9219 75.2561 81.0703 75.049 81.4375H74.3693L74.7678 78.3438H77.8303V78.9688H75.3537L75.1428 80.625H75.1975C75.4514 80.4297 75.8303 80.2969 76.2287 80.2969C77.3068 80.2969 78.0998 81.0938 78.1037 82.1953C78.0998 83.2891 77.2795 84.0781 76.1506 84.0781Z" fill="#7F52FF"/>
<path d="M94.367 84.0781C93.3866 84.0664 92.3045 83.4844 92.3045 81.3906C92.3045 79.3867 93.1248 78.2656 94.453 78.2656C95.4491 78.2656 96.1444 78.8789 96.2889 79.7656H95.5936C95.4647 79.2656 95.0819 78.8906 94.453 78.8906C93.5233 78.8906 92.9647 79.6836 92.9686 81.0469H93.0389C93.3631 80.5742 93.8826 80.2969 94.492 80.2969C95.4959 80.2969 96.3358 81.0781 96.3358 82.1719C96.3358 83.2383 95.5584 84.0898 94.367 84.0781ZM93.0623 82.1875C93.0662 82.8516 93.6092 83.457 94.367 83.4609C95.0975 83.457 95.6522 82.8828 95.6561 82.1797C95.6522 81.4844 95.1209 80.918 94.3826 80.9141C93.6405 80.918 93.0701 81.5195 93.0623 82.1875Z" fill="#BCBEC0"/>
<path d="M110.982 84L113.576 79.0078V78.9688H110.584V78.3438H114.302V79L111.716 84H110.982Z" fill="#BCBEC0"/>
<rect y="56" width="6.05263" height="15" rx="3" fill="#D0BFFF"/>
<rect x="18.1578" y="45" width="6.05263" height="26" rx="3" fill="#BCA4FF"/>
<rect x="36.3158" y="35" width="6.05263" height="36" rx="3" fill="#A888FF"/>
<rect x="54.4736" y="28" width="6.05263" height="43" rx="3" fill="#936DFF"/>
<rect x="72.6316" y="20" width="6.05263" height="51" rx="3" fill="#7F52FF"/>
<rect x="90.7894" y="10" width="6.05263" height="61" rx="3" fill="#D9D9D9"/>
<rect x="108.947" width="6.05263" height="71" rx="3" fill="#D9D9D9"/>
</svg>
