<svg width="40" height="40" viewBox="0 0 40 40" fill="none" xmlns="http://www.w3.org/2000/svg">
<rect x="1.25" y="1.25" width="37.5" height="37.5" rx="18.75" stroke="#7F52FF" stroke-width="2.5"/>
<path d="M28.9003 14.172C29.3665 12.8824 28.1169 11.6328 26.8275 12.1001L11.068 17.7999C9.77427 18.2682 9.61781 20.0337 10.808 20.7232L15.8385 23.6357L20.3306 19.1434C20.5341 18.9468 20.8066 18.8381 21.0896 18.8405C21.3725 18.843 21.6431 18.9565 21.8432 19.1565C22.0432 19.3566 22.1567 19.6273 22.1592 19.9102C22.1616 20.1931 22.0529 20.4657 21.8563 20.6692L17.3643 25.1616L20.2777 30.1923C20.9661 31.3826 22.7314 31.225 23.1997 29.9323L28.9003 14.172Z" fill="#7F52FF"/>
</svg>
