<svg width="29" height="25" viewBox="0 0 29 25" fill="none" xmlns="http://www.w3.org/2000/svg">
<path d="M4.34694 24.9979C4.11504 24.9979 3.89409 24.8902 3.75845 24.7023C3.58562 24.4636 3.58781 24.1427 3.76501 23.9062L5.88926 21.0427C2.19644 18.8508 0 15.3539 0 11.6585C0 5.23059 6.504 0 14.5 0C22.496 0 29 5.23059 29 11.6585C29 18.0864 22.496 23.317 14.5 23.317C13.6337 23.317 12.763 23.2537 11.912 23.1312C11.7348 23.1058 11.5641 23.1143 11.4044 23.1565L4.53727 24.9747C4.47382 24.9916 4.41038 25 4.34694 25V24.9979ZM6.88028 21.5158L5.27233 23.6823L11.1135 22.1366C11.4219 22.0542 11.7435 22.0373 12.0717 22.0859C12.868 22.202 13.684 22.2591 14.4956 22.2591C21.8878 22.2591 27.9018 17.5036 27.9018 11.6564C27.9018 5.80919 21.8878 1.05372 14.4956 1.05372C7.10343 1.05372 1.08947 5.80919 1.08947 11.6564C1.08947 15.0287 3.15027 18.23 6.60245 20.2255C6.8234 20.3522 6.98092 20.5655 7.03342 20.8105C7.08593 21.0554 7.02904 21.313 6.87809 21.5179L6.88028 21.5158Z" fill="black"/>
</svg>
