<svg width="110" height="108" viewBox="0 0 110 108" fill="none" xmlns="http://www.w3.org/2000/svg">
<path d="M54.948 51.96C40.618 51.96 28.948 40.3 28.948 25.98C28.948 11.66 40.618 0 54.948 0C69.278 0 80.948 11.66 80.948 25.98C80.948 40.3 69.288 51.96 54.948 51.96ZM54.948 5C43.368 5 33.948 14.41 33.948 25.98C33.948 37.55 43.368 46.96 54.948 46.96C66.528 46.96 75.948 37.55 75.948 25.98C75.948 14.41 66.528 5 54.948 5Z" fill="black"/>
<path d="M104.578 107.05H5.31791C3.85791 107.05 2.44791 106.44 1.44791 105.38C0.457912 104.33 -0.0720883 102.9 0.00791167 101.46C1.53791 74.5903 23.6079 56.5303 54.9379 56.5303C86.2679 56.5303 108.348 74.5903 109.868 101.46C109.948 102.9 109.428 104.33 108.428 105.38C107.428 106.44 106.018 107.05 104.558 107.05H104.578ZM54.9479 61.5303C26.4479 61.5303 6.37791 77.6903 5.00791 101.74C5.00791 101.82 5.02791 101.89 5.08791 101.95C5.12791 102 5.20791 102.05 5.31791 102.05H104.578C104.688 102.05 104.768 102 104.808 101.95C104.868 101.89 104.888 101.82 104.888 101.74C103.518 77.6903 83.4479 61.5303 54.9479 61.5303Z" fill="black"/>
</svg>
