<?xml version="1.0" encoding="utf-8"?>
<!-- Generator: Adobe Illustrator 26.1.0, SVG Export Plug-In . SVG Version: 6.00 Build 0)  -->
<svg version="1.1" id="레이어_1" xmlns="http://www.w3.org/2000/svg" xmlns:xlink="http://www.w3.org/1999/xlink" x="0px"
	 y="0px" viewBox="0 0 28.3 28.3" style="enable-background:new 0 0 28.3 28.3;" xml:space="preserve">
<style type="text/css">
	.st0{fill:#7F52FF;}
</style>
<path class="st0" d="M14.2,0.1c3.7,0,7.3,1.5,10,4.1c2.6,2.6,4.1,6.2,4.1,10s-1.5,7.3-4.1,10s-6.2,4.1-10,4.1s-7.3-1.5-10-4.1
	c-2.6-2.6-4.1-6.2-4.1-10s1.5-7.3,4.1-10C6.8,1.5,10.4,0.1,14.2,0.1z M16.3,8.7c1,0,1.9-0.7,1.9-1.8c0-1.1-0.9-1.8-1.9-1.8
	c-1,0-1.9,0.7-1.9,1.8C14.4,8,15.2,8.7,16.3,8.7z M16.7,20.1c0-0.2,0.1-0.8,0-1.1L15,20.9c-0.3,0.4-0.8,0.6-1,0.5
	c-0.1,0-0.2-0.1-0.2-0.2c0-0.1-0.1-0.2,0-0.3l2.8-8.7c0.2-1.1-0.4-2.1-1.7-2.2c-1.4,0-3.4,1.4-4.7,3.2c0,0.2,0,0.7,0,1.1l1.7-1.9
	c0.3-0.4,0.7-0.6,0.9-0.5c0.1,0,0.2,0.1,0.2,0.2c0,0.1,0.1,0.2,0,0.3L10.3,21c-0.3,1,0.3,2,1.7,2.2C14.2,23.2,15.4,21.9,16.7,20.1
	L16.7,20.1z"/>
</svg>
