<svg width="67" height="67" viewBox="0 0 67 67" fill="none" xmlns="http://www.w3.org/2000/svg">
<g filter="url(#filter0_d_205_70)">
<circle cx="33.5" cy="31.5" r="27.5" fill="#7F52FF"/>
</g>
<path d="M26 38H27.425L37.2 28.225L35.775 26.8L26 36.575V38ZM24 40V35.75L37.2 22.575C37.4 22.3917 37.6208 22.25 37.8625 22.15C38.1042 22.05 38.3583 22 38.625 22C38.8917 22 39.15 22.05 39.4 22.15C39.65 22.25 39.8667 22.4 40.05 22.6L41.425 24C41.625 24.1833 41.7708 24.4 41.8625 24.65C41.9542 24.9 42 25.15 42 25.4C42 25.6667 41.9542 25.9208 41.8625 26.1625C41.7708 26.4042 41.625 26.625 41.425 26.825L28.25 40H24ZM36.475 27.525L35.775 26.8L37.2 28.225L36.475 27.525Z" fill="white"/>
<defs>
<filter id="filter0_d_205_70" x="0" y="0" width="67" height="67" filterUnits="userSpaceOnUse" color-interpolation-filters="sRGB">
<feFlood flood-opacity="0" result="BackgroundImageFix"/>
<feColorMatrix in="SourceAlpha" type="matrix" values="0 0 0 0 0 0 0 0 0 0 0 0 0 0 0 0 0 0 127 0" result="hardAlpha"/>
<feOffset dy="2"/>
<feGaussianBlur stdDeviation="3"/>
<feComposite in2="hardAlpha" operator="out"/>
<feColorMatrix type="matrix" values="0 0 0 0 0 0 0 0 0 0 0 0 0 0 0 0 0 0 0.25 0"/>
<feBlend mode="normal" in2="BackgroundImageFix" result="effect1_dropShadow_205_70"/>
<feBlend mode="normal" in="SourceGraphic" in2="effect1_dropShadow_205_70" result="shape"/>
</filter>
</defs>
</svg>
