<svg width="108" height="106" viewBox="0 0 108 106" fill="none" xmlns="http://www.w3.org/2000/svg">
<path d="M53.9475 49.96C67.7275 49.96 78.9475 38.75 78.9475 24.98C78.9475 11.21 67.7375 0 53.9475 0C40.1575 0 28.9475 11.21 28.9475 24.98C28.9475 38.75 40.1575 49.96 53.9475 49.96Z" fill="black"/>
<path d="M53.9474 56.5295C23.1874 56.5295 1.50739 74.2095 0.00739169 100.51C-0.0626083 101.68 0.367392 102.84 1.17739 103.69C1.98739 104.55 3.13739 105.04 4.31739 105.04H103.577C104.757 105.04 105.907 104.55 106.717 103.69C107.527 102.84 107.947 101.68 107.887 100.51C106.397 74.1995 84.7174 56.5195 53.9574 56.5195L53.9474 56.5295Z" fill="black"/>
</svg>
