<svg width="108" height="106" viewBox="0 0 108 106" fill="none" xmlns="http://www.w3.org/2000/svg">
<path d="M54.0698 49.96C67.8498 49.96 79.0698 38.75 79.0698 24.98C79.0698 11.21 67.8498 0 54.0698 0C40.2898 0 29.0698 11.21 29.0698 24.98C29.0698 38.75 40.2798 49.96 54.0698 49.96Z" fill="black"/>
<path d="M54.07 56.5303C23.31 56.5303 1.62996 74.2103 0.13996 100.52C0.0699603 101.69 0.499943 102.85 1.30994 103.7C2.11994 104.56 3.26996 105.05 4.44996 105.05H103.71C104.89 105.05 106.04 104.56 106.85 103.7C107.66 102.85 108.08 101.69 108.02 100.52C106.53 74.2103 84.8499 56.5303 54.0899 56.5303H54.07Z" fill="black"/>
</svg>
