<svg width="26" height="25" viewBox="0 0 26 25" fill="none" xmlns="http://www.w3.org/2000/svg">
<path d="M13.0024 12.1357C9.61145 12.1357 6.84998 9.4124 6.84998 6.06785C6.84998 2.72329 9.60909 0 13.0024 0C16.3957 0 19.1548 2.72329 19.1548 6.06785C19.1548 9.4124 16.3957 12.1357 13.0024 12.1357ZM13.0024 1.16779C10.2622 1.16779 8.03313 3.36558 8.03313 6.06785C8.03313 8.77012 10.2622 10.9679 13.0024 10.9679C15.7426 10.9679 17.9716 8.77012 17.9716 6.06785C17.9716 3.36558 15.7426 1.16779 13.0024 1.16779Z" fill="black"/>
<path d="M24.7463 25.0001H1.25838C0.912899 25.0001 0.579251 24.8576 0.342621 24.61C0.108356 24.3648 -0.0170583 24.0308 0.00187213 23.6945C0.363917 17.4187 5.58635 13.2007 13 13.2007C20.4136 13.2007 25.6384 17.4187 25.9981 23.6945C26.017 24.0308 25.894 24.3648 25.6574 24.61C25.4207 24.8576 25.0871 25.0001 24.7416 25.0001H24.7463ZM13.0024 14.3685C6.25838 14.3685 1.50921 18.1428 1.18502 23.7599C1.18502 23.7785 1.18975 23.7949 1.20395 23.8089C1.21342 23.8206 1.23235 23.8323 1.25838 23.8323H24.7463C24.7724 23.8323 24.7913 23.8206 24.8007 23.8089C24.8149 23.7949 24.8197 23.7785 24.8197 23.7599C24.4955 18.1428 19.7463 14.3685 13.0024 14.3685Z" fill="black"/>
</svg>
