<svg width="110" height="108" viewBox="0 0 110 108" fill="none" xmlns="http://www.w3.org/2000/svg">
<path d="M55.0701 52.1104C40.7401 52.1104 29.0701 40.4504 29.0701 26.1304C29.0701 11.8104 40.7301 0.150391 55.0701 0.150391C69.4101 0.150391 81.0701 11.8104 81.0701 26.1304C81.0701 40.4504 69.4101 52.1104 55.0701 52.1104ZM55.0701 5.15039C43.4901 5.15039 34.0701 14.5604 34.0701 26.1304C34.0701 37.7004 43.4901 47.1104 55.0701 47.1104C66.6501 47.1104 76.0701 37.7004 76.0701 26.1304C76.0701 14.5604 66.6501 5.15039 55.0701 5.15039Z" fill="black"/>
<path d="M104.7 107.19H5.43998C3.97998 107.19 2.56998 106.58 1.56998 105.52C0.579984 104.47 0.049982 103.04 0.129982 101.6C1.65998 74.7299 23.73 56.6699 55.06 56.6699C86.39 56.6699 108.47 74.7299 109.99 101.6C110.07 103.04 109.55 104.47 108.55 105.52C107.55 106.58 106.14 107.19 104.68 107.19H104.7ZM55.07 61.6699C26.57 61.6699 6.49998 77.8299 5.12998 101.88C5.12998 101.96 5.14997 102.03 5.20997 102.09C5.24997 102.14 5.32998 102.19 5.43998 102.19H104.7C104.81 102.19 104.89 102.14 104.93 102.09C104.99 102.03 105.01 101.96 105.01 101.88C103.64 77.8299 83.57 61.6699 55.07 61.6699Z" fill="black"/>
</svg>
