<svg width="12" height="7" viewBox="0 0 12 7" fill="none" xmlns="http://www.w3.org/2000/svg">
<g clip-path="url(#clip0_292_434)">
<path d="M6.04806 6.99977C4.04081 6.99977 2.06896 5.97542 0.185077 3.954C-0.0515455 3.69986 -0.0636801 3.32304 0.157774 3.05916C2.40872 0.369777 4.84978 0.0250836 5.79425 0.00171459C7.85104 -0.0479446 9.8775 0.981267 11.815 3.06695C12.0526 3.32304 12.0627 3.70084 11.8392 3.96471C9.57313 6.63949 7.12904 6.97737 6.18255 6.99879C6.13806 6.99977 6.09356 7.00074 6.04907 7.00074L6.04806 6.99977ZM5.93885 0.486622C5.89436 0.486622 5.85087 0.486622 5.80739 0.488569C3.1823 0.553808 1.25797 2.52168 0.552145 3.36491C0.485406 3.44475 0.489451 3.55089 0.562257 3.62976C2.38445 5.58497 4.26833 6.55478 6.17042 6.51194C7.31106 6.48662 8.44867 6.09714 9.55088 5.35614C10.4711 4.73784 11.1334 4.02606 11.4469 3.65605C11.5146 3.5762 11.5116 3.4691 11.4378 3.3912C9.64695 1.46325 7.79745 0.486622 5.93885 0.486622Z" fill="#BCBEC0"/>
<path d="M5.99951 5.44369C4.88617 5.44369 3.98114 4.57125 3.98114 3.50017C3.98114 2.42908 4.88718 1.55664 5.99951 1.55664C7.11184 1.55664 8.01788 2.42908 8.01788 3.50017C8.01788 4.57125 7.11184 5.44369 5.99951 5.44369ZM5.99951 2.04252C5.16526 2.04252 4.48674 2.69588 4.48674 3.49919C4.48674 4.3025 5.16526 4.95586 5.99951 4.95586C6.83376 4.95586 7.51228 4.3025 7.51228 3.49919C7.51228 2.69588 6.83376 2.04252 5.99951 2.04252Z" fill="#BCBEC0"/>
</g>
<defs>
<clipPath id="clip0_292_434">
<rect width="12" height="7" fill="white"/>
</clipPath>
</defs>
</svg>
